<svg width="40" height="40" viewBox="0 0 40 40" fill="none" xmlns="http://www.w3.org/2000/svg">
<path fill-rule="evenodd" clip-rule="evenodd" d="M36.3762 3.37461H3.62383V36.5752H36.3762V3.37461ZM3.62383 1.6499C2.6718 1.6499 1.90002 2.42208 1.90002 3.37461V36.5752C1.90002 37.5277 2.6718 38.2999 3.62383 38.2999H36.3762C37.3282 38.2999 38.1 37.5277 38.1 36.5752V3.37461C38.1 2.42208 37.3282 1.6499 36.3762 1.6499H3.62383Z" fill="#161A1D"/>
<path d="M5.57064 10.5557C5.54439 10.5735 5.52684 10.5913 5.51809 10.6091C5.51809 10.6269 5.43044 10.6358 5.25519 10.6358C5.08864 10.6269 5.00539 10.6091 5.00539 10.5824C4.84765 10.6536 4.7162 10.6447 4.61103 10.5557C4.50587 10.4578 4.47519 10.3465 4.51901 10.2219C4.56283 10.0973 4.56721 9.91934 4.53216 9.68794C4.50587 9.45654 4.52777 9.30524 4.59789 9.23404C4.59789 9.12724 4.58036 8.94924 4.5453 8.69999C4.51901 8.45079 4.51463 8.26834 4.53216 8.15264C4.55845 8.03694 4.56721 7.90789 4.55845 7.76549C4.54968 7.62309 4.56283 7.51629 4.59789 7.44509L4.5453 7.43174C4.58912 7.43174 4.6417 7.42284 4.70305 7.40504C4.81698 7.36944 4.90024 7.36499 4.95282 7.39169C5.01414 7.41839 5.17629 7.42284 5.43919 7.40504C5.70214 7.37834 5.85549 7.39169 5.89929 7.44509C6.03074 7.40949 6.21479 7.40504 6.45144 7.43174C6.69679 7.44954 6.88524 7.42729 7.01669 7.36499C7.14814 7.40059 7.21389 7.48959 7.21389 7.63199C7.21389 7.76549 7.21389 7.85894 7.21389 7.91234C7.21389 7.96574 7.20074 8.05029 7.17444 8.16599C7.15689 8.28169 7.13499 8.42854 7.10869 8.60654C7.08244 8.77569 7.09994 9.01154 7.16129 9.31414C7.21389 9.46544 7.22704 9.80809 7.20074 10.3421C7.17444 10.8672 7.16569 11.1698 7.17444 11.2499C7.19194 11.33 7.19194 11.4991 7.17444 11.7572C7.16569 12.0153 7.16129 12.1533 7.16129 12.1711C7.15254 12.2957 6.94219 12.3179 6.53029 12.2378C6.39009 12.2111 6.28489 12.2067 6.21479 12.2245C6.03074 12.1444 5.86424 12.1577 5.71529 12.2645C5.57504 12.3713 5.51809 12.5226 5.54439 12.7184C5.75469 14.3027 5.78974 15.5131 5.64954 16.3497C5.61449 16.5099 5.60134 16.6968 5.61009 16.9104C5.61884 17.213 5.61009 17.4311 5.58379 17.5646C5.56629 17.707 5.56629 17.8628 5.58379 18.0319C5.60134 18.201 5.60134 18.3256 5.58379 18.4057C5.56629 18.4947 5.58819 18.5659 5.64954 18.6193C5.71089 18.6727 5.81604 18.6771 5.96504 18.6326C6.11404 18.597 6.23234 18.5881 6.31999 18.6059C6.54784 18.6504 6.73184 18.5748 6.87209 18.379C6.88959 18.3523 7.02109 18.2099 7.26644 17.9518C7.52059 17.7026 7.66959 17.5557 7.71339 17.5112C7.72219 17.2353 7.72219 16.2696 7.71339 14.6142C7.71339 12.9498 7.71779 11.953 7.72654 11.6237C7.73534 11.2944 7.73094 10.9696 7.71339 10.6491C7.69589 10.3198 7.69149 10.124 7.70024 10.0617C7.77039 9.34084 7.76159 8.46859 7.67399 7.44509C7.73534 7.40059 7.80104 7.38279 7.87114 7.39169C7.94129 7.40059 8.03769 7.41839 8.16034 7.44509C8.29184 7.46289 8.38824 7.46289 8.44959 7.44509C8.58104 7.40059 8.65554 7.40949 8.67304 7.47179C8.69934 7.52519 8.71249 7.56524 8.71249 7.59194C8.71249 7.61864 8.71249 7.65424 8.71249 7.69874C8.71249 7.74324 8.71249 7.80999 8.71249 7.89899C8.71249 7.98799 8.72564 8.21049 8.75194 8.56649C8.78699 9.26964 8.79574 9.77249 8.77819 10.0751C8.71684 10.8939 8.69059 11.5125 8.69934 11.9308C8.70809 12.3491 8.70809 12.6606 8.69934 12.8653C8.62044 14.3872 8.62044 15.4775 8.69934 16.1361C8.80449 17.1418 8.83954 18.2855 8.80449 19.5671C8.76944 19.6739 8.69934 19.7273 8.59419 19.7273C8.49779 19.7273 8.39699 19.7095 8.29184 19.6739C8.19544 19.6472 8.10339 19.6695 8.01574 19.7407C7.98949 19.6517 7.91059 19.6383 7.77914 19.7006L7.71339 19.714C7.73094 19.7051 7.73094 19.6517 7.71339 19.5538C7.69589 19.447 7.69589 19.3046 7.71339 19.1266C7.73969 18.9486 7.74409 18.8151 7.72654 18.7261C7.57759 18.7706 7.33659 18.9619 7.00354 19.3001C6.93344 19.4692 6.81514 19.5849 6.64859 19.6472C6.48209 19.7095 6.35064 19.7184 6.25424 19.6739C6.15784 19.6294 6.04829 19.6116 5.92559 19.6205C5.79414 19.6294 5.65394 19.6472 5.50494 19.6739C5.36469 19.7095 5.28144 19.7273 5.25519 19.7273L4.8608 19.754C4.70305 19.754 4.60227 19.7184 4.55845 19.6472C4.53216 19.5938 4.52339 19.5271 4.53216 19.447C4.47957 19.3313 4.47519 19.1221 4.51901 18.8195C4.56283 18.5169 4.56721 18.3033 4.53216 18.1787C4.4971 18.063 4.49272 17.8672 4.51901 17.5913C4.55407 17.3243 4.55407 17.1374 4.51901 17.0306C4.49272 16.9149 4.49272 16.728 4.51901 16.4699C4.63294 15.2594 4.6417 14.1692 4.5453 13.1991C4.52777 13.0032 4.52777 12.8074 4.5453 12.6116C4.56283 12.4069 4.56283 12.2467 4.5453 12.131C4.58036 12.1043 4.58912 11.9797 4.57159 11.7572C4.55407 11.5258 4.5453 11.4012 4.5453 11.3834C4.55407 11.2499 4.60227 11.1698 4.6899 11.1431C4.83013 11.1075 4.94844 11.1209 5.04484 11.1832C5.17629 11.1387 5.32089 11.1164 5.47864 11.1164L5.95189 11.1565C6.03954 11.1565 6.09649 11.1298 6.12279 11.0764C6.15784 11.0141 6.16659 10.9473 6.14909 10.8761C6.08774 10.6447 6.07459 10.4578 6.10964 10.3154C6.15344 10.173 6.14469 9.84369 6.08334 9.32749C6.07459 9.25629 6.08774 9.13169 6.12279 8.95369C6.15784 8.76679 6.16224 8.62879 6.13594 8.53979C6.10964 8.44189 6.01764 8.40184 5.85989 8.41964C5.56189 8.45524 5.49179 8.72229 5.64954 9.22069C5.58819 9.33639 5.57064 9.52329 5.59694 9.78139C5.62324 10.0395 5.62324 10.2086 5.59694 10.2887C5.57944 10.3688 5.57504 10.4266 5.58379 10.4622C5.60134 10.4978 5.59694 10.529 5.57064 10.5557ZM4.5453 7.43174L4.49272 7.41839C4.51025 7.42729 4.52777 7.43174 4.5453 7.43174Z" fill="#161A1D"/>
<path d="M5.65755 5.4827C5.60495 5.5183 5.58305 5.5628 5.59185 5.6162C5.5042 5.901 5.51295 6.1413 5.6181 6.3371C5.68825 6.3015 5.7715 6.29705 5.8679 6.32375C5.9643 6.35045 6.02125 6.36825 6.0388 6.37715C6.10015 6.29705 6.1264 6.19915 6.11765 6.08345C6.10015 5.95885 6.09575 5.86095 6.1045 5.78975C6.14835 5.73635 6.1571 5.67405 6.1308 5.60285C6.09575 5.52275 6.0563 5.48715 6.0125 5.49605C5.9599 5.49605 5.92045 5.5005 5.8942 5.5094C5.8679 5.5094 5.8416 5.51385 5.8153 5.52275C5.78025 5.53165 5.7496 5.5361 5.7233 5.5361C5.6707 5.5539 5.6488 5.5361 5.65755 5.4827ZM4.55332 4.77514C4.6322 4.76623 4.80309 4.74843 5.066 4.72173C5.3289 4.68613 5.6225 4.69058 5.94675 4.73508C6.26225 4.77069 6.5427 4.77069 6.7881 4.73508C7.03345 4.69948 7.16055 4.70393 7.1693 4.74843C7.17805 4.78404 7.1737 4.84634 7.15615 4.93534C7.13865 5.02435 7.13865 5.1534 7.15615 5.3225C7.1737 5.4916 7.1693 5.7853 7.143 6.2036C7.0992 6.3104 7.1211 6.37715 7.20875 6.40385C7.2964 6.42165 7.3709 6.41275 7.4322 6.37715C7.4848 6.33265 7.54615 6.31485 7.61625 6.32375C7.6776 6.32375 7.71265 6.2926 7.72145 6.2303C7.7565 6.0078 7.74335 5.83425 7.682 5.70965C7.6119 5.57615 7.62505 5.5005 7.72145 5.4827C7.80905 5.4649 7.9405 5.4827 8.1158 5.5361C8.29105 5.5895 8.44445 5.5984 8.5759 5.5628C8.6986 5.5183 8.75995 5.50495 8.75995 5.52275C8.75995 5.54055 8.75555 5.5806 8.7468 5.6429C8.72925 5.7052 8.72925 5.75415 8.7468 5.78975C8.7643 5.82535 8.77745 5.86985 8.78625 5.92325C8.78625 5.97665 8.78185 6.0256 8.7731 6.0701C8.7643 6.1057 8.75115 6.1591 8.73365 6.2303C8.7161 6.2926 8.70735 6.34155 8.70735 6.37715C8.70735 6.41275 8.7161 6.47955 8.73365 6.57745C8.75995 6.71985 8.75995 6.86225 8.73365 7.00465C8.68105 7.07585 8.5803 7.11145 8.4313 7.11145C8.2823 7.11145 8.09825 7.1248 7.8792 7.1515C7.6601 7.1782 7.3709 7.1871 7.01155 7.1782C6.6435 7.1693 6.3236 7.15595 6.05195 7.13815C5.58745 7.10255 5.07915 7.12035 4.52703 7.19155C4.48321 7.17375 4.47883 7.107 4.51389 6.9913C4.54018 6.8667 4.54456 6.77325 4.52703 6.71095C4.5095 6.63975 4.50074 6.5908 4.50074 6.5641C4.50074 6.5374 4.5095 6.4751 4.52703 6.37715C4.57961 6.11015 4.56647 5.8209 4.48759 5.5094C4.47883 5.1534 4.50074 4.90864 4.55332 4.77514Z" fill="#161A1D"/>
<path d="M11.3365 7.67211L11.4154 6.59076C11.4154 6.48396 11.411 6.24806 11.4022 5.88316C11.3935 5.50936 11.3891 5.25126 11.3891 5.10886C11.3365 4.97535 11.3453 4.873 11.4154 4.8018C11.4855 4.72169 11.5907 4.68164 11.7309 4.68164L12.9797 4.70834C13.1199 4.68164 13.3084 4.68609 13.545 4.72169C13.7904 4.75729 13.9569 4.7751 14.0445 4.7751L13.9919 5.86981C13.9919 5.96771 13.9963 6.20356 14.0051 6.57741C14.0226 6.94231 14.0226 7.35171 14.0051 7.80561C13.9876 8.25061 13.9876 8.57991 14.0051 8.79356C14.0401 9.21186 14.0533 9.52336 14.0445 9.72806C14.0182 10.4045 14.0007 11.3123 13.9919 12.4515C13.9919 13.5908 13.9876 14.3918 13.9788 14.8546C14.0226 17.1241 14.0314 18.4013 14.0051 18.6861C13.9788 18.9709 13.97 19.1534 13.9788 19.2335C14.0314 19.5094 13.9744 19.6651 13.8079 19.7007C13.694 19.6829 13.5669 19.6829 13.4267 19.7007C13.0761 19.7452 12.9228 19.6295 12.9666 19.3536C12.9052 18.9531 12.8833 18.0231 12.9009 16.5634C12.9271 15.1038 12.9447 13.6264 12.9534 12.1311C12.971 10.627 12.9841 9.84821 12.9929 9.79481C12.9578 8.06816 12.9315 7.11141 12.914 6.92451C12.8965 6.73761 12.8965 6.59076 12.914 6.48396C12.9315 6.36821 12.9403 6.23916 12.9403 6.09676C12.9403 5.95436 12.914 5.85646 12.8614 5.80306C12.7913 5.86536 12.6949 5.87426 12.5722 5.82976C12.4583 5.77636 12.4013 5.76746 12.4013 5.80306C12.4451 6.46171 12.4627 7.15591 12.4539 7.88571C12.4013 11.5348 12.4013 13.8934 12.4539 14.9614C12.5065 16.0205 12.5065 16.8927 12.4539 17.578C12.4013 18.2723 12.375 18.6238 12.375 18.6327C12.4539 18.7573 12.4758 18.9442 12.4408 19.1934C12.4057 19.4426 12.3926 19.6073 12.4013 19.6874C12.2699 19.6518 12.1472 19.6384 12.0332 19.6473C11.7703 19.6651 11.5994 19.674 11.5206 19.674C11.3979 19.7541 11.2401 19.763 11.0473 19.7007C10.8545 19.6473 10.7143 19.6384 10.6266 19.674C10.5302 19.6295 10.39 19.6162 10.206 19.634C10.0307 19.6607 9.90361 19.6562 9.82476 19.6206C9.77216 19.0332 9.75466 18.6105 9.77216 18.3524C9.88611 16.2608 9.89486 14.3562 9.79846 12.6384C9.70206 10.9207 9.69331 9.37651 9.77216 8.00586C9.85106 6.62636 9.86416 5.54496 9.81161 4.76174C9.85541 4.77065 9.89486 4.76619 9.92991 4.74839C9.97371 4.72169 10.0044 4.70834 10.0219 4.70834C10.0395 4.69944 10.0745 4.71724 10.1271 4.76174C10.1797 4.80625 10.2761 4.8107 10.4163 4.7751C10.5653 4.73059 10.6748 4.71724 10.745 4.73504C10.8151 4.76174 10.8414 4.85075 10.8238 5.00206C10.929 5.94546 10.9246 6.88446 10.8107 7.81896C10.7932 7.97916 10.8238 8.62886 10.9027 9.76811C10.9816 10.8984 10.9903 11.8463 10.929 12.6117C10.8764 13.3772 10.8501 13.9468 10.8501 14.3206C10.8589 14.6944 10.8414 15.3263 10.7975 16.2163C10.7537 17.1063 10.7581 17.7872 10.8107 18.2589C10.7844 18.4903 10.7932 18.6283 10.837 18.6728L11.4285 18.566C11.411 17.4178 11.3979 16.2697 11.3891 15.1216C11.354 14.6499 11.3365 14.3962 11.3365 14.3606C11.3453 14.3161 11.3497 14.0536 11.3497 13.573C11.4022 11.8285 11.3979 9.86156 11.3365 7.67211Z" fill="#161A1D"/>
<path d="M18.1276 8.94033C18.0751 8.99373 17.9874 9.01153 17.8647 8.99373C17.7508 8.97593 17.6763 8.98483 17.6413 9.02043C17.65 9.17173 17.6544 9.38088 17.6544 9.64788C17.6544 9.91488 17.6763 10.124 17.7201 10.2753C17.6763 10.4355 17.6763 11.5614 17.7201 13.653C17.7727 15.7356 17.7683 16.8659 17.707 17.0439C17.6456 17.2219 17.6325 17.3732 17.6675 17.4978C17.7639 17.8272 17.7114 18.0141 17.5098 18.0586C17.0804 18.1565 16.7035 18.1698 16.3793 18.0986C16.3092 18.0897 16.2566 18.0853 16.2215 18.0853C16.1514 18.0675 16.1164 18.1031 16.1164 18.1921C16.1164 18.29 16.112 18.3701 16.1032 18.4324C16.1032 18.5036 16.1076 18.5436 16.1164 18.5525C16.1865 18.6148 16.3048 18.6371 16.4713 18.6193C17.0146 18.5748 17.3915 18.5703 17.6018 18.6059C17.8209 18.6504 17.983 18.6549 18.0882 18.6193C18.1934 18.5748 18.2284 18.4591 18.1934 18.2722C18.1671 18.0853 18.1627 17.8717 18.1802 17.6313C18.2153 17.2842 18.2416 14.7521 18.2591 10.035C18.2328 9.90153 18.224 9.71463 18.2328 9.47433C18.2503 9.23403 18.2153 9.05603 18.1276 8.94033ZM18.9032 7.91233C19.1136 7.87673 19.2319 7.93458 19.2582 8.08588C19.2757 8.20158 19.2669 8.33953 19.2319 8.49973C19.2056 8.65103 19.1968 8.79793 19.2056 8.94033C19.2144 9.08273 19.2406 9.83923 19.2845 11.2099C19.3283 12.5805 19.3327 13.3771 19.2976 13.5996C19.3502 15.3885 19.3414 16.4743 19.2713 16.857C19.2012 17.2308 19.1968 17.4667 19.2582 17.5646C19.3195 17.6714 19.3283 17.8628 19.2845 18.1387C19.2406 18.4235 19.2187 18.5926 19.2187 18.646C19.2275 18.7083 19.2494 18.824 19.2845 18.9931C19.337 19.3046 19.2932 19.5315 19.153 19.6739C18.9777 19.7451 18.8287 19.7718 18.7061 19.754C18.5921 19.7451 18.4388 19.7229 18.246 19.6873C18.0619 19.6517 17.9086 19.6428 17.7859 19.6606C17.6632 19.6784 17.4441 19.6695 17.1286 19.6339C16.8131 19.6072 16.6115 19.6072 16.5239 19.6339C16.445 19.6606 16.3267 19.6784 16.1689 19.6873C16.0112 19.6962 15.8973 19.7051 15.8272 19.714C15.5993 19.7229 15.4153 19.7051 15.275 19.6606C15.2137 19.6873 15.1655 19.7006 15.1304 19.7006C15.0428 19.7006 15.0034 19.6383 15.0121 19.5137C15.0121 19.4781 15.0165 19.4203 15.0253 19.3402C15.034 19.269 15.0384 18.913 15.0384 18.2722C15.0647 18.1832 15.0647 18.0719 15.0384 17.9384C15.0209 17.8049 15.0209 17.6981 15.0384 17.618C14.9595 17.4756 14.9595 17.3154 15.0384 17.1374C15.1173 16.9594 15.2531 16.9193 15.4459 17.0172C15.7877 16.9816 16.1295 16.995 16.4713 17.0573C16.5063 17.0306 16.5545 15.9715 16.6159 13.8799C16.6247 13.8176 16.6553 13.5284 16.7079 13.0121C16.7605 12.4959 16.7561 11.8017 16.6948 10.9295C16.6334 10.0484 16.6115 9.57668 16.629 9.51438C16.6991 9.29188 16.6641 9.13613 16.5239 9.04713C16.3924 8.94923 16.2259 8.93588 16.0243 9.00708C15.9104 8.97148 15.7789 8.96703 15.63 8.99373C15.2268 9.08273 15.0296 8.97593 15.0384 8.67328C15.0559 8.37068 15.0735 8.12148 15.091 7.92568C15.1085 7.72988 15.0866 7.59193 15.0253 7.51183C15.0165 7.39613 15.0165 7.18698 15.0253 6.88438C15.034 6.58178 15.034 6.37258 15.0253 6.25688C14.999 5.42028 15.0034 4.95747 15.0384 4.86847C15.1173 4.69046 15.2794 4.64596 15.5248 4.73496C15.6124 4.76166 15.7132 4.77502 15.8272 4.77502C15.9411 4.77502 16.0287 4.73941 16.0901 4.66821C16.3267 4.78392 16.6247 4.81062 16.984 4.74831C17.3521 4.68601 17.8954 4.67711 18.614 4.72161C18.8156 4.64151 18.9953 4.66376 19.153 4.78837C19.3195 4.90407 19.3633 5.06873 19.2845 5.28233C19.2494 5.72733 19.2494 6.20348 19.2845 6.71083C19.2231 6.83543 19.0873 6.90218 18.8769 6.91108C18.6754 6.91998 18.5133 6.90218 18.3906 6.85768C18.2591 6.87548 18.1846 6.84433 18.1671 6.76423C18.1496 6.67523 18.1583 6.57733 18.1934 6.47053C18.2284 6.36368 18.2153 6.27023 18.1539 6.19013C18.2416 6.02103 18.2372 5.90978 18.1408 5.85638C18.0444 5.79408 17.9129 5.77628 17.7464 5.80298C17.5887 5.82968 17.4616 5.82968 17.3652 5.80298C17.2688 5.77628 17.0672 5.78073 16.7605 5.81633C16.4538 5.85193 16.2434 5.85193 16.1295 5.81633C16.1032 5.99433 16.0769 6.29693 16.0506 6.72418C16.1032 6.79538 16.1207 6.93778 16.1032 7.15138C16.0594 7.68538 16.0725 7.96128 16.1426 7.97908C16.2128 7.98798 16.2872 7.97463 16.3661 7.93903C16.445 7.90343 16.5151 7.90343 16.5765 7.93903C16.6378 7.79663 16.6553 7.61418 16.629 7.39168C16.6115 7.16028 16.6027 7.00898 16.6027 6.93778C16.6904 6.88438 16.9796 6.85323 17.4704 6.84433C17.6106 6.84433 17.6895 6.91553 17.707 7.05793C17.7245 7.19143 17.7114 7.32493 17.6675 7.45843C17.6237 7.59193 17.6369 7.71653 17.707 7.83223C17.7771 7.94793 17.9655 7.98353 18.2722 7.93903C18.579 7.88563 18.7893 7.87673 18.9032 7.91233Z" fill="#161A1D"/>
<path d="M21.2907 6.32354C21.4134 6.44819 21.4177 6.71074 21.3038 7.11124C21.3564 7.18244 21.3827 7.23584 21.3827 7.27144C21.3827 7.33374 21.3038 7.37824 21.1461 7.40494C20.9971 7.42274 20.9051 7.44054 20.87 7.45834C20.835 7.38714 20.7692 7.36934 20.6728 7.40494C20.4625 7.47614 20.3398 7.41829 20.3047 7.23139C20.2872 7.13349 20.2872 7.04449 20.3047 6.96439C20.3223 6.88429 20.3091 6.81309 20.2653 6.75079C20.3091 6.68849 20.3267 6.58169 20.3179 6.43034C20.3179 6.27014 20.331 6.15444 20.3573 6.08324C20.3223 6.03874 20.3047 5.98534 20.3047 5.92304C20.3135 5.85184 20.3091 5.78509 20.2916 5.72279C20.2828 5.66049 20.2785 5.55369 20.2785 5.40239C20.2785 5.17099 20.2697 4.94403 20.2522 4.72152L20.3442 4.78828C20.3792 4.72597 20.4143 4.69482 20.4493 4.69482C20.5019 4.69482 20.5764 4.70817 20.6728 4.73487C20.7692 4.75267 21.0584 4.75267 21.5404 4.73487C21.5843 4.69927 21.7245 4.69482 21.9611 4.72152C22.2065 4.73932 22.3467 4.75267 22.3818 4.76157C22.4431 4.77048 22.4694 4.87728 22.4606 5.08199C22.4519 5.27779 22.4519 5.41574 22.4606 5.49584C22.4168 6.11884 22.4124 6.50159 22.4475 6.64399C22.4475 7.08009 22.4168 7.49394 22.3555 7.88554C22.4343 8.33054 22.4431 8.71329 22.3818 9.03369C22.2678 8.97139 22.1758 8.94469 22.1057 8.95359C22.0444 8.96249 21.948 8.98474 21.8165 9.02034C21.6938 9.04704 21.5974 9.04704 21.5273 9.02034C21.4221 8.97584 21.3608 9.00254 21.3433 9.10044C21.3433 9.12714 21.3433 9.17164 21.3433 9.23394C21.352 9.28734 21.3564 9.31849 21.3564 9.32739C21.4528 11.0629 21.4616 12.0775 21.3827 12.3712C21.4002 12.6471 21.3958 12.8474 21.3695 12.972C21.352 13.0966 21.3476 13.7552 21.3564 14.9478C21.3739 16.1405 21.3739 16.7991 21.3564 16.9237C21.3564 17.1462 21.3608 17.4176 21.3695 17.7381C21.3608 18.103 21.3389 18.37 21.3038 18.5391C21.3915 18.6281 21.5273 18.6726 21.7113 18.6726C21.8954 18.6726 21.9523 18.5791 21.8822 18.3922C21.8559 18.3388 21.8559 18.1831 21.8822 17.925C21.9085 17.6669 21.9085 17.4799 21.8822 17.3642C21.8559 17.2396 21.8559 16.5232 21.8822 15.2148C21.9085 13.8175 21.9129 13.0476 21.8954 12.9052C21.834 12.5403 21.8253 12.3312 21.8691 12.2778C21.9129 12.2244 21.9611 12.2021 22.0137 12.211C22.3204 12.2377 22.6009 12.2155 22.855 12.1443C22.9163 12.1799 22.947 12.2466 22.947 12.3445C22.947 12.4424 22.9339 12.5581 22.9076 12.6916C22.8462 13.101 22.8681 14.752 22.9733 17.6446C22.8944 18.0451 22.8725 18.3566 22.9076 18.5791L23.4071 18.6325C23.4159 18.321 23.4378 17.3598 23.4729 15.7489C23.5342 12.1265 23.5386 9.91479 23.486 9.11379C23.4422 8.30384 23.4159 7.81434 23.4071 7.64524C23.4071 7.35154 23.4246 6.87984 23.4597 6.23009C23.5035 5.58039 23.5167 5.21549 23.4991 5.13539C23.4816 5.04639 23.4772 4.95738 23.486 4.86838C23.5035 4.77938 23.5561 4.74822 23.6437 4.77493C23.7051 4.70372 23.8234 4.68592 23.9987 4.72152C24.174 4.74822 24.2923 4.74377 24.3536 4.70817C24.4588 4.76157 24.5114 4.89063 24.5114 5.09534C24.5114 5.30004 24.5201 5.47359 24.5377 5.61599C24.5552 5.74949 24.5464 6.07879 24.5114 6.60394C24.4851 7.12014 24.4719 7.50284 24.4719 7.75204C24.4719 7.99234 24.4807 8.28159 24.4982 8.61979C24.542 9.59884 24.5639 11.2231 24.5639 13.4927C24.5727 16.225 24.5639 17.7381 24.5377 18.0318C24.5114 18.3255 24.507 18.5836 24.5245 18.8061C24.5508 19.0286 24.5333 19.2066 24.4719 19.3401C24.5771 19.5359 24.507 19.6471 24.2616 19.6738C24.2353 19.6827 24.1959 19.6872 24.1433 19.6872C24.0907 19.6961 24.0513 19.7005 24.025 19.7005C24.0074 19.7094 23.911 19.7094 23.7358 19.7005C23.4115 19.6827 23.153 19.6872 22.9602 19.7139C22.5132 19.7228 22.1714 19.7317 21.9348 19.7406C21.7069 19.7495 21.4002 19.7361 21.0146 19.7005C20.629 19.6738 20.3968 19.6649 20.3179 19.6738C20.3267 19.2377 20.3267 18.9796 20.3179 18.8995C20.3091 18.8194 20.3135 18.5569 20.331 18.1119C20.3486 17.6669 20.3573 17.3642 20.3573 17.204C20.3573 17.0438 20.3486 16.7768 20.331 16.403C20.3573 15.8334 20.3398 14.574 20.2785 12.6249C20.2259 10.6668 20.2346 9.50094 20.3047 9.12714C20.2784 8.94024 20.2697 8.82009 20.2785 8.76669C20.331 8.48184 20.3573 8.29049 20.3573 8.19259C20.2784 8.08579 20.2784 8.00569 20.3573 7.95229C20.445 7.90779 20.5457 7.90334 20.6597 7.93894C20.7473 7.86774 20.8963 7.86329 21.1066 7.92559C21.3257 7.97899 21.4835 7.98789 21.5799 7.95229C21.6062 7.83659 21.6149 7.69864 21.6062 7.53844C21.6062 7.37824 21.6149 7.23584 21.6325 7.11124C21.65 6.98664 21.65 6.83089 21.6325 6.64399C21.6062 6.20784 21.5711 5.92749 21.5273 5.80289C21.4659 5.83849 21.3915 5.84294 21.3038 5.81624C21.2162 5.78954 21.1504 5.79399 21.1066 5.82959C21.1329 5.87409 21.1285 5.97644 21.0935 6.13664C21.0672 6.28794 21.0891 6.37249 21.1592 6.39029L21.2118 6.35024C21.203 6.36804 21.2293 6.35914 21.2907 6.32354Z" fill="#161A1D"/>
<path d="M29.8039 4.9353C29.8039 4.9798 29.7907 5.57611 29.7644 6.72426C29.7469 7.86346 29.7382 8.61106 29.7382 8.96711C29.7382 9.31421 29.7294 11.9264 29.7119 16.8037C29.7206 17.9074 29.7469 18.5482 29.7907 18.7262C29.7469 18.833 29.7382 18.9576 29.7644 19.1C29.8521 19.4916 29.782 19.6874 29.5541 19.6874C29.1334 19.6963 28.7478 19.6918 28.3973 19.674C28.0555 19.6562 27.7751 19.6518 27.556 19.6607C27.3719 19.7408 27.0389 19.7541 26.5569 19.7007C26.0837 19.6473 25.7506 19.6384 25.5578 19.674C25.4702 17.4579 25.4877 15.8114 25.6104 14.7344C25.5754 13.168 25.5666 11.0097 25.5841 8.25951C25.5315 7.72551 25.5052 7.05356 25.5052 6.24361C25.514 5.42481 25.5184 4.9353 25.5184 4.7751L25.6104 4.78845C25.6367 4.74394 25.7901 4.72614 26.0705 4.73504C26.3509 4.73504 26.5131 4.73059 26.5569 4.72169C26.5657 4.9531 26.5788 5.29576 26.5963 5.74966C26.6489 7.06691 26.6402 8.12156 26.57 8.91371C26.5963 9.50111 26.6051 10.1375 26.5963 10.8228C26.5963 11.5081 26.5963 12.3848 26.5963 13.4528C26.5963 14.5119 26.6007 15.3663 26.6095 16.0161C26.627 16.6569 26.6445 17.5157 26.6621 18.5927C26.811 18.655 27.0477 18.6594 27.3719 18.606C27.6962 18.5615 27.9547 18.5749 28.1475 18.6461C28.3491 18.7262 28.5025 18.6861 28.6076 18.5259C28.7917 18.2589 28.8267 17.1642 28.7128 15.2417C28.669 14.3517 28.6558 13.3816 28.6734 12.3314C28.6996 11.2723 28.6953 10.578 28.6602 10.2487C28.6339 9.91051 28.6514 9.35871 28.7128 8.59326C28.6427 7.89906 28.6339 6.96901 28.6865 5.80306C28.6076 5.83866 28.5244 5.84311 28.4367 5.81641C28.3579 5.78971 28.2877 5.78526 28.2264 5.80306C28.1738 5.81196 28.1519 5.89651 28.1607 6.05671C28.1782 6.20801 28.1782 6.45721 28.1607 6.80436C28.1519 7.14256 28.1782 7.40956 28.2395 7.60536C28.222 7.85456 28.2176 8.18386 28.2264 8.59326C28.2352 8.99381 28.2089 9.30976 28.1475 9.54116C28.3053 9.50556 28.4017 9.55451 28.4367 9.68801C28.4805 9.81261 28.4893 9.96391 28.463 10.1419C28.4367 10.3199 28.4455 10.4712 28.4893 10.5958C28.4104 10.5869 28.279 10.5914 28.0949 10.6092C27.6392 10.6359 27.3193 10.6092 27.1353 10.5291C27.1441 10.004 27.1309 9.66576 27.0959 9.51446C27.1572 9.33646 27.1879 9.14956 27.1879 8.95376C27.1879 8.74906 27.1704 8.49091 27.1353 8.17941C27.1003 7.85901 27.0871 7.65876 27.0959 7.57866C27.1046 7.48966 27.1222 7.36951 27.1485 7.21821C27.1747 7.04021 27.1747 6.75986 27.1485 6.37711C27.1222 5.99441 27.1003 5.76301 27.0827 5.68291C27.074 5.59391 27.0871 5.47821 27.1222 5.33581C27.0696 5.14891 27.0608 4.99315 27.0959 4.86855C27.1309 4.73504 27.2492 4.70389 27.4508 4.7751C27.5998 4.73059 27.8189 4.72614 28.1081 4.76174C28.3973 4.79735 28.612 4.77064 28.7522 4.68164C28.8749 4.77955 29.0195 4.80625 29.186 4.76174C29.6155 4.66384 29.8214 4.72169 29.8039 4.9353Z" fill="#161A1D"/>
<path d="M33.7688 9.47443C33.6987 9.53673 33.6461 9.56788 33.611 9.56788C33.3306 9.55898 32.9713 9.55008 32.5331 9.54118C32.4455 9.58568 32.3403 9.59458 32.2176 9.56788C32.0949 9.53228 31.9941 9.52783 31.9152 9.55453C31.8364 9.57233 31.8101 9.64353 31.8364 9.76813C31.8977 10.1241 31.9109 10.5558 31.8758 11.0631C31.8408 11.5615 31.8232 12.7897 31.8232 14.7478C31.832 16.7058 31.832 17.8406 31.8232 18.1521C31.7356 18.339 31.7575 18.4814 31.889 18.5793C32.0204 18.6861 32.1782 18.7084 32.3622 18.6461C32.3096 18.2278 32.314 17.8406 32.3753 17.4846C32.4367 17.1286 32.4367 16.2831 32.3753 14.948C32.3228 13.6041 32.3184 12.852 32.3622 12.6918C32.406 12.5227 32.4104 12.2869 32.3753 11.9843C32.3403 11.6728 32.3315 11.4681 32.3491 11.3702C32.3754 11.2634 32.3797 11.1566 32.3622 11.0498C32.3534 10.9341 32.371 10.8228 32.4148 10.716C32.4586 10.627 32.5331 10.5914 32.6383 10.6092C32.8574 10.6359 33.1904 10.627 33.6373 10.5825C33.725 10.6537 33.8082 10.6581 33.8871 10.5958C33.966 10.5246 34.001 10.4267 33.9923 10.3021C33.9222 10.2131 33.9002 10.1152 33.9265 10.0084C34.0054 9.69693 33.9528 9.51893 33.7688 9.47443ZM30.9425 19.7007C30.8636 19.7007 30.8242 19.6562 30.8242 19.5672C30.8242 19.4782 30.8242 19.3981 30.8242 19.3269C30.8242 19.2646 30.811 19.1845 30.7847 19.0866C30.7584 18.9798 30.7584 18.7796 30.7847 18.4859C30.811 18.1922 30.8242 18.0008 30.8242 17.9118C30.8242 17.8228 30.8154 17.6003 30.7979 17.2443C30.7803 16.8883 30.7716 16.154 30.7716 15.0415C30.7803 13.929 30.7979 13.2837 30.8242 13.1057C30.8504 12.9188 30.8417 12.6785 30.7979 12.3848C30.7628 12.0822 30.7584 11.8597 30.7847 11.7173C30.8461 11.388 30.8592 11.0409 30.8242 10.6759C30.7716 10.0618 30.7628 9.62128 30.7979 9.35428C30.8329 9.07838 30.8285 8.87813 30.7847 8.75353C30.6971 8.50428 30.8899 8.40638 31.3631 8.45978C31.4595 8.47758 31.6217 8.48648 31.8495 8.48648C32.0774 8.47758 32.2439 8.47758 32.3491 8.48648C32.3578 8.45088 32.3622 8.33518 32.3622 8.13938C32.3622 7.93468 32.3797 7.78783 32.4148 7.69883C32.3797 7.59203 32.3797 7.52528 32.4148 7.49858C32.4586 7.46298 32.5243 7.44073 32.612 7.43183C32.6996 7.41403 32.7653 7.38288 32.8092 7.33838C32.9231 7.39178 33.0107 7.41848 33.0721 7.41848C33.1334 7.41848 33.2035 7.41848 33.2824 7.41848C33.37 7.41848 33.4182 7.43183 33.427 7.45853C33.4445 7.47633 33.4533 7.54753 33.4533 7.67213L33.4139 8.20613C33.4139 8.34853 33.4445 8.43753 33.5059 8.47313C33.576 8.49983 33.6812 8.50873 33.8214 8.49983C33.9616 8.48203 34.0536 8.47758 34.0974 8.48648C34.1413 8.48648 34.2201 8.48203 34.3341 8.47313C34.448 8.45533 34.5707 8.44643 34.7021 8.44643C34.8336 8.44643 34.9344 8.50428 35.0045 8.61998C34.987 9.01163 34.9782 9.30978 34.9782 9.51448C34.9782 9.71028 34.9913 10.004 35.0176 10.3956C35.0615 11.1877 35.0702 12.4159 35.0439 14.0803C35.0877 15.5488 35.0877 16.7503 35.0439 17.6849C35.0001 18.6194 34.9913 19.1489 35.0176 19.2735C35.0527 19.407 35.0746 19.4916 35.0834 19.5272C35.0834 19.6607 34.9957 19.723 34.8204 19.7141C34.7942 19.7141 34.7416 19.7141 34.6627 19.7141C34.6101 19.6429 34.5356 19.6206 34.4392 19.6473C34.3516 19.6829 34.2552 19.7007 34.15 19.7007C34.0536 19.7007 34.001 19.6429 33.9923 19.5272C33.9835 19.4204 33.9879 19.2246 34.0054 18.9398C34.0229 18.6639 34.0273 18.4592 34.0186 18.3257C34.0186 18.1922 34.0054 17.9074 33.9791 17.4712C33.9528 17.0351 33.9353 16.2742 33.9265 15.1883C33.9265 14.0936 33.9265 13.3772 33.9265 13.0389C33.9265 12.7007 33.9353 12.3981 33.9528 12.1311C34.0405 11.9709 34.0229 11.8374 33.9002 11.7306C33.8827 11.7217 33.8652 11.7217 33.8477 11.7306C33.8477 11.7217 33.852 11.7173 33.8608 11.7173C33.8696 11.7173 33.8783 11.7217 33.8871 11.7306C33.7469 11.5882 33.6067 11.5838 33.4664 11.7173C33.4139 11.8953 33.3919 12.0377 33.4007 12.1445C33.4095 12.2513 33.427 12.3981 33.4533 12.585C33.4796 12.763 33.4883 12.9054 33.4796 13.0122C33.4708 13.119 33.4664 13.2615 33.4664 13.4395C33.4752 13.6086 33.4752 14.2138 33.4664 15.2551C33.4664 16.2875 33.4577 16.866 33.4402 16.9906C33.484 17.1686 33.484 17.4223 33.4402 17.7516C33.3963 18.0809 33.3876 18.3301 33.4139 18.4992C33.4489 18.6683 33.4577 18.8552 33.4402 19.0599C33.4314 19.2646 33.4489 19.4248 33.4927 19.5405C33.4577 19.674 33.3832 19.7408 33.2693 19.7408C33.1553 19.7497 33.0239 19.7319 32.8749 19.6874C32.7347 19.6429 32.6251 19.6251 32.5462 19.634C32.4674 19.6518 32.2264 19.6607 31.8232 19.6607C31.4201 19.6607 31.1265 19.674 30.9425 19.7007Z" fill="#161A1D"/>
<path d="M33.6847 4.74831C33.8337 4.74831 33.9871 4.73051 34.1448 4.69491C34.3026 4.65931 34.434 4.65931 34.5392 4.69491C34.6707 4.73941 34.7671 4.75721 34.8284 4.74831L35.065 4.73496C35.0913 4.82397 35.0826 5.01088 35.0387 5.29568C35.0037 5.48258 34.9555 5.56713 34.8941 5.54933C34.824 5.52263 34.7451 5.50928 34.6575 5.50928C34.6575 5.50928 34.4559 5.54933 34.0528 5.62943C33.6497 5.51373 33.3123 5.47813 33.0406 5.52263C32.7163 5.59383 32.4096 5.61163 32.1204 5.57603C31.9276 5.55823 31.8312 5.59383 31.8312 5.68283C31.8224 5.88753 31.8268 6.12338 31.8443 6.39038C31.8443 6.36368 31.8619 6.35923 31.8969 6.37703C31.932 6.39483 31.967 6.39483 32.0021 6.37703C32.0284 6.35033 32.059 6.34588 32.0941 6.36368C32.1116 6.38148 32.1292 6.42153 32.1467 6.48388C32.1642 6.54618 32.1598 6.60403 32.1335 6.65743C32.0985 6.71973 32.081 6.75978 32.081 6.77758C32.081 6.79538 32.0941 6.84878 32.1204 6.93778C32.1379 7.06238 32.1379 7.12023 32.1204 7.11133C32.1116 7.10243 32.0503 7.10243 31.9364 7.11133C31.6734 7.15583 31.5376 7.17363 31.5288 7.16473C31.5025 7.15583 31.336 7.13803 31.0293 7.11133C30.9066 7.10243 30.8277 7.02233 30.7927 6.87103C30.7664 6.77313 30.762 6.67523 30.7795 6.57733C30.8146 6.41708 30.8321 6.24798 30.8321 6.06998C30.8234 5.89198 30.8321 5.71843 30.8584 5.54933C30.8759 5.37133 30.8409 5.08208 30.7532 4.68156L30.8584 4.73496C30.9198 4.73496 31.0249 4.73941 31.1739 4.74831C31.3141 4.75721 31.577 4.74831 31.9626 4.72161C32.3395 4.69491 32.5454 4.68156 32.5805 4.68156C32.9223 4.72606 33.1677 4.74831 33.3167 4.74831C33.4393 4.74831 33.562 4.74831 33.6847 4.74831Z" fill="#161A1D"/>
<path d="M6.20892 23.7382C6.17752 23.7555 6.15657 23.7728 6.14607 23.7901C6.14607 23.8074 6.04137 23.8161 5.83197 23.8161C5.63302 23.8074 5.53352 23.7901 5.53352 23.7641C5.34507 23.8334 5.18797 23.8247 5.06232 23.7382C4.93667 23.643 4.90003 23.5347 4.95238 23.4136C5.00472 23.2924 5.00997 23.1192 4.96809 22.8942C4.93667 22.6691 4.96285 22.5219 5.04662 22.4527C5.04662 22.3488 5.02567 22.1757 4.98379 21.9333C4.95238 21.6909 4.94715 21.5134 4.96809 21.4009C4.9995 21.2883 5.00997 21.1628 4.9995 21.0243C4.98903 20.8858 5.00472 20.7819 5.04662 20.7127L4.98379 20.6997C5.03617 20.6997 5.09897 20.691 5.17227 20.6737C5.30842 20.6391 5.40787 20.6348 5.47072 20.6607C5.54402 20.6867 5.73772 20.691 6.05182 20.6737C6.36597 20.6478 6.54922 20.6607 6.60157 20.7127C6.75862 20.6781 6.97852 20.6737 7.26127 20.6997C7.55442 20.717 7.77957 20.6954 7.93662 20.6348C8.09372 20.6694 8.17222 20.756 8.17222 20.8945C8.17222 21.0243 8.17222 21.1152 8.17222 21.1672C8.17222 21.2191 8.15652 21.3013 8.12512 21.4139C8.10417 21.5264 8.07802 21.6692 8.04657 21.8424C8.01517 22.0068 8.03612 22.2363 8.10942 22.5306C8.17222 22.6777 8.18792 23.011 8.15652 23.5304C8.12512 24.0412 8.11462 24.3355 8.12512 24.4134C8.14607 24.4913 8.14607 24.6558 8.12512 24.9068C8.11462 25.1579 8.10942 25.292 8.10942 25.3094C8.09892 25.4305 7.84762 25.4522 7.35547 25.3743C7.18797 25.3483 7.06232 25.344 6.97852 25.3613C6.75862 25.2834 6.56492 25.2964 6.39737 25.4002C6.22987 25.5041 6.15657 25.6513 6.17752 25.8417C6.26127 26.4477 6.29267 26.7983 6.27172 26.8935C6.25082 26.9887 6.24557 27.5687 6.25602 28.6335C6.26652 29.6896 6.26652 30.2609 6.25602 30.3475C6.24557 30.4341 6.22987 30.525 6.20892 30.6202C6.19842 30.7154 6.20367 30.8453 6.22462 31.0097C6.24557 31.1742 6.24557 31.2997 6.22462 31.3863C6.20367 31.4642 6.22987 31.5291 6.30317 31.5811C6.37647 31.633 6.50212 31.6417 6.68012 31.607C6.85812 31.5638 6.99947 31.5508 7.10417 31.5681C7.37642 31.6114 7.59632 31.5378 7.76387 31.3474C7.78482 31.3214 7.94187 31.1872 8.23507 30.9448C8.53872 30.6938 8.71672 30.5466 8.76907 30.5033C8.80052 30.0618 8.80572 29.0793 8.78477 27.5557C8.77432 26.0235 8.77432 25.0973 8.78477 24.777C8.79527 24.4567 8.79002 24.1407 8.76907 23.8291C8.74812 23.5088 8.74292 23.3183 8.75337 23.2577C8.83717 22.5565 8.82667 21.7082 8.72197 20.7127C8.79527 20.6694 8.87382 20.6521 8.95757 20.6607C9.04132 20.6694 9.15652 20.6867 9.30312 20.7127C9.46017 20.73 9.57537 20.73 9.64867 20.7127C9.80572 20.6694 9.89472 20.6781 9.91567 20.7387C9.94707 20.7906 9.96277 20.8295 9.96277 20.8555C9.96277 20.8815 9.96277 20.9161 9.96277 20.9594C9.96277 21.0027 9.96277 21.0676 9.96277 21.1542C9.96277 21.2407 9.97847 21.4572 10.0099 21.8034C10.0518 22.4873 10.0623 22.9764 10.0413 23.2707C9.96802 24.0671 9.93662 24.6688 9.94707 25.0756C9.95757 25.4825 9.95232 25.8288 9.93137 26.1144C9.92092 26.3914 9.94187 27.1316 9.99422 28.3348C10.078 30.2393 10.1042 31.6287 10.0727 32.503C10.0309 32.6069 9.94707 32.6588 9.82142 32.6588C9.70627 32.6588 9.58582 32.6458 9.46017 32.6199C9.34502 32.5852 9.23507 32.6026 9.13032 32.6718C9.09892 32.5852 9.00467 32.5723 8.84762 32.6329L8.76907 32.6458C8.79002 32.6372 8.79002 32.5853 8.76907 32.49C8.74812 32.3861 8.74812 32.2476 8.76907 32.0745C8.80052 31.9014 8.80572 31.7715 8.78477 31.685C8.60677 31.7282 8.31882 31.9144 7.92092 32.2433C7.83717 32.4078 7.69582 32.5203 7.49687 32.5809C7.29792 32.6415 7.14082 32.6502 7.02567 32.6069C6.91047 32.5636 6.77957 32.5463 6.63297 32.555C6.47592 32.5636 6.30837 32.5852 6.13037 32.6199C5.96282 32.6458 5.86337 32.6588 5.83197 32.6588L5.36077 32.6848C5.17227 32.6848 5.05187 32.6502 4.9995 32.5809C4.96809 32.529 4.95762 32.4641 4.96809 32.3861C4.90526 32.2736 4.90003 32.0702 4.95238 31.7759C5.00472 31.4815 5.00997 31.2781 4.96809 31.1656C4.9262 31.0444 4.92097 30.8539 4.95238 30.5942C4.99427 30.3259 4.99427 30.1354 4.95238 30.0229C4.92097 29.9103 4.92097 29.2914 4.95238 28.166C4.98379 27.032 4.98903 26.3914 4.96809 26.2443C4.95762 26.0971 4.96285 25.9283 4.98379 25.7379C5.00472 25.5388 5.00472 25.3829 4.98379 25.2704C5.02567 25.2444 5.03617 25.1232 5.01522 24.9068C4.99427 24.6817 4.98379 24.5606 4.98379 24.5432C4.99427 24.4134 5.05187 24.3355 5.15657 24.3095C5.32412 24.2749 5.46547 24.2879 5.58067 24.3485C5.73772 24.3052 5.91047 24.2835 6.09897 24.2835L6.66442 24.3225C6.76912 24.3225 6.83717 24.2965 6.86857 24.2446C6.91047 24.184 6.92092 24.1191 6.90002 24.0498C6.82672 23.8247 6.81102 23.643 6.85287 23.5044C6.90522 23.3659 6.89477 23.0456 6.82147 22.5436C6.81102 22.4743 6.82672 22.3531 6.86857 22.18C6.91047 21.9982 6.91572 21.864 6.88427 21.7774C6.85287 21.6822 6.74292 21.6433 6.55447 21.6606C6.19842 21.6952 6.11467 21.9549 6.30317 22.4397C6.22987 22.5522 6.20892 22.734 6.24032 22.985C6.27172 23.2361 6.27172 23.4006 6.24032 23.4785C6.21937 23.5564 6.21417 23.6127 6.22462 23.6473C6.24557 23.6819 6.24032 23.7122 6.20892 23.7382ZM4.98379 20.6997L4.92097 20.6867C4.94191 20.6954 4.96285 20.6997 4.98379 20.6997Z" fill="#161A1D"/>
<path d="M4.96195 33.4509C4.98289 33.3817 4.99336 33.2821 4.99336 33.1523C4.98289 33.0224 4.98812 32.9358 5.00906 32.8926C5.01956 32.8493 5.03526 32.8276 5.05616 32.8276C5.07711 32.8276 5.10331 32.832 5.13471 32.8406C5.15566 32.8406 5.19756 32.8363 5.26036 32.8276C5.31271 32.819 5.43316 32.8363 5.62161 32.8796C5.79961 32.9142 5.91481 32.9315 5.96716 32.9315C6.22896 32.8882 6.51691 32.8579 6.83101 32.8406C6.84151 32.8752 6.84151 32.9575 6.83101 33.0873C6.81011 33.2085 6.82581 33.36 6.87816 33.5418C6.92001 33.7236 6.93576 34.0223 6.92526 34.4378C7.19751 34.4205 7.41741 34.4291 7.58496 34.4637C7.74201 34.507 7.89386 34.507 8.04046 34.4637C8.17656 34.4291 8.30746 34.4161 8.43311 34.4248C8.54826 34.4334 8.62681 34.4334 8.66871 34.4248C8.68966 34.3815 8.70536 34.3166 8.71581 34.23C8.72631 34.1434 8.73676 34.0828 8.74721 34.0482C8.74721 34.0223 8.76296 33.9573 8.79436 33.8534C8.81531 33.7496 8.81006 33.6284 8.77866 33.4899C8.73676 33.3514 8.72631 33.2042 8.74721 33.0484C8.72631 32.9791 8.73676 32.9402 8.77866 32.9315C8.81006 32.9142 8.86766 32.9099 8.95141 32.9185C9.21321 32.9445 9.43831 32.9142 9.62681 32.8276C9.62681 32.8276 9.67391 32.832 9.76816 32.8406C9.86241 32.8406 9.93046 32.8493 9.97236 32.8666C10.0038 32.8839 10.0038 32.9575 9.97236 33.0873C9.93046 33.2085 9.93571 33.3687 9.98806 33.5678C10.0404 33.7669 10.0509 33.992 10.0195 34.243C9.98806 34.5027 9.96711 34.6758 9.95666 34.7624C9.94616 34.849 9.94091 34.9096 9.94091 34.9442C9.95141 35.0654 9.99331 35.1649 10.0666 35.2428C10.0038 35.2428 9.87811 35.2515 9.68961 35.2688C9.45926 35.2775 9.23416 35.2731 9.01426 35.2558C8.79436 35.2385 8.51161 35.2299 8.16611 35.2299C7.82056 35.2299 7.62161 35.2255 7.56926 35.2169C7.50641 35.2169 7.38076 35.2082 7.19226 35.1909C7.00381 35.1822 6.85721 35.1866 6.75251 35.2039C6.64781 35.2212 6.46976 35.2169 6.21846 35.1909C5.95671 35.1649 5.76821 35.1563 5.65301 35.1649C5.67396 34.8793 5.66876 34.6585 5.63731 34.5027C5.59546 34.3555 5.57976 34.0612 5.59021 33.6197C5.52736 33.6457 5.45931 33.6543 5.38601 33.6457C5.31271 33.6457 5.24991 33.65 5.19756 33.6587C5.10331 33.7279 5.03526 33.7279 4.99336 33.6587C4.95148 33.5894 4.941 33.5202 4.96195 33.4509Z" fill="#161A1D"/>
<path d="M11.5116 20.6348L13.3492 20.6867C13.5691 20.6088 13.7105 20.6131 13.7733 20.6997C13.8466 20.7863 13.8623 20.9031 13.8204 21.0503C13.789 21.1975 13.7943 21.3273 13.8361 21.4398C13.8257 21.587 13.7419 21.6779 13.5848 21.7125C13.4382 21.7385 13.2498 21.7428 13.0194 21.7255C12.789 21.6995 12.6372 21.6909 12.5639 21.6995C12.543 23.2491 12.5273 24.2359 12.5168 24.6601C12.5168 25.0756 12.5168 25.898 12.5168 27.1272C12.5168 28.3565 12.5168 29.2178 12.5168 29.7112C12.5587 29.8151 12.5691 30.3821 12.5482 31.4123C12.5273 32.4338 12.5168 32.9921 12.5168 33.0873C12.5691 33.2172 12.5744 33.3773 12.5325 33.5678C12.4906 33.7582 12.4906 33.9227 12.5325 34.0612C12.5744 34.1997 12.6948 34.2387 12.8937 34.1781C13.6686 34.1348 14.3335 34.1434 14.8885 34.204C15.0874 34.0396 15.1345 33.6803 15.0298 33.1263C14.988 32.9272 14.988 32.7281 15.0298 32.529C15.1764 32.2433 15.056 32.0962 14.6686 32.0875C14.5848 32.0875 14.4749 32.0918 14.3387 32.1005C14.0665 32.1784 13.8728 32.1308 13.7576 31.9576C13.6529 31.7759 13.6738 31.5984 13.8204 31.4253C13.7471 31.1829 13.8152 31.053 14.0246 31.0357C14.1189 31.0357 14.2236 31.04 14.3387 31.0487C14.7052 31.092 14.9304 31.1093 15.0141 31.1006C15.3701 31.04 15.6005 31.0097 15.7052 31.0097C16.1869 30.9665 16.3858 31.0747 16.3021 31.3344C16.2288 31.9144 16.234 32.477 16.3178 33.0224C16.2864 33.36 16.2811 33.6457 16.3021 33.8794C16.3335 34.1218 16.3492 34.269 16.3492 34.3209C16.3178 34.4681 16.3125 34.6196 16.3335 34.7754C16.3544 34.9312 16.3282 35.0524 16.255 35.139C16.1817 35.2255 16.0351 35.2342 15.8152 35.1649C15.5848 35.2601 15.2968 35.2861 14.9513 35.2428C14.6162 35.1996 14.3963 35.1736 14.2916 35.1649C13.7681 35.2342 13.2707 35.2472 12.7995 35.2039C12.0561 35.2212 11.5587 35.2125 11.3074 35.1779C11.3074 34.8922 11.2969 34.2387 11.276 33.2172C11.2655 32.1957 11.2707 31.5118 11.2917 31.1656C11.3231 30.8193 11.3126 30.2696 11.2603 29.5165C11.2184 28.7547 11.2236 27.9583 11.276 27.1272C11.3283 26.2962 11.3336 25.2098 11.2917 23.868C11.2498 22.5262 11.2341 21.7039 11.2445 21.4009C11.2655 21.0892 11.2655 20.8469 11.2445 20.6737C11.4226 20.6478 11.5116 20.6348 11.5116 20.6348Z" fill="#161A1D"/>
<path d="M18.9818 31.0357L20.0184 31.0877C20.2278 31.0011 20.4215 31.0097 20.5995 31.1136C20.7776 31.2088 20.8142 31.343 20.7095 31.5162C20.6676 31.5854 20.6571 31.6763 20.6781 31.7888C20.7514 32.0659 20.6519 32.1697 20.3797 32.1005C20.2749 32.0745 20.1912 32.0788 20.1283 32.1135C20.0655 32.1481 20.0341 32.2 20.0341 32.2693L20.0498 32.49C20.0184 32.7151 20.0184 32.9315 20.0498 33.1393C20.0917 33.3557 20.0865 33.5591 20.0341 33.7496C20.0341 33.7582 20.0446 33.7712 20.0655 33.7885C20.0865 33.8058 20.0917 33.8318 20.0812 33.8664C20.0812 33.9097 20.0812 33.94 20.0812 33.9573C20.0812 33.9746 20.0708 34.0049 20.0498 34.0482C20.0289 34.1002 20.0236 34.1391 20.0341 34.1651C20.055 34.1911 20.1074 34.1824 20.1912 34.1391C20.2959 34.217 20.4529 34.2343 20.6624 34.1911C20.8823 34.1564 21.0446 34.1651 21.1493 34.217C21.233 34.1131 21.2645 33.9487 21.2435 33.7236C21.233 33.4985 21.2487 33.1869 21.2906 32.7887C21.3325 32.3818 21.3587 32.1524 21.3692 32.1005C21.3378 31.7109 21.3325 30.473 21.3535 28.3868C21.3849 26.2919 21.3692 25.1665 21.3063 25.0107C21.3273 24.8808 21.2959 24.8073 21.2121 24.79C21.1283 24.7726 21.0079 24.7856 20.8508 24.8289C20.6938 24.8635 20.5838 24.8765 20.521 24.8679C20.4687 24.8592 20.2016 24.8549 19.72 24.8549C19.2383 24.8549 18.9137 24.8549 18.7462 24.8549C18.5891 24.8462 18.432 24.8506 18.275 24.8679C17.8666 24.9111 17.6362 24.8635 17.5839 24.725C17.542 24.5779 17.5315 24.4221 17.5525 24.2576C17.5839 24.0931 17.5734 23.9632 17.5211 23.868C17.5734 23.5737 17.5786 23.2274 17.5368 22.8292C17.5682 22.5436 17.5734 22.3098 17.5525 22.128C17.5315 21.9376 17.5211 21.8121 17.5211 21.7515C17.5839 21.6822 17.5891 21.5004 17.5368 21.2061C17.4949 20.9118 17.4739 20.73 17.4739 20.6607L17.5525 20.6867C17.6362 20.6521 17.7828 20.6434 17.9922 20.6607C18.2121 20.6694 18.3483 20.6694 18.4006 20.6607C18.453 20.6521 18.5525 20.6564 18.699 20.6737C18.8456 20.691 19.1441 20.704 19.5943 20.7127C20.0446 20.7213 20.4268 20.7127 20.7409 20.6867C21.055 20.6521 21.2697 20.6348 21.3849 20.6348C21.5001 20.6348 21.6048 20.6391 21.699 20.6478C21.8037 20.717 21.9189 20.7343 22.0446 20.6997C22.3901 20.6218 22.5733 20.6651 22.5943 20.8295C22.6048 20.9421 22.5943 21.1672 22.5629 21.5048C22.5315 21.8424 22.5472 22.0674 22.61 22.18C22.5786 22.2319 22.5629 22.3271 22.5629 22.4657C22.5629 22.5955 22.5419 22.6907 22.5 22.7513C22.4582 22.8033 22.3692 22.8033 22.233 22.7513C22.0969 22.6907 21.966 22.6864 21.8404 22.7383C21.7147 22.7816 21.5943 22.8033 21.4791 22.8033C21.3639 22.8033 21.2906 22.7427 21.2592 22.6215C21.3325 22.4916 21.3587 22.3401 21.3378 22.167C21.3273 21.9852 21.322 21.8813 21.322 21.8554C21.3011 21.6389 21.0131 21.5913 20.4582 21.7125C20.2592 21.7558 20.1074 21.7558 20.0027 21.7125C19.8247 21.7298 19.699 21.7385 19.6257 21.7385L18.9032 21.6606C18.8404 21.7298 18.809 21.8857 18.809 22.128C18.8195 22.3618 18.7985 22.5306 18.7462 22.6345C18.8404 23.0327 18.8352 23.3962 18.7305 23.7252C18.8038 23.7425 18.9399 23.7512 19.1388 23.7512C19.3483 23.7512 19.5263 23.7641 19.6729 23.7901C19.8195 23.8161 20.0708 23.8204 20.4268 23.8031C20.7933 23.7858 21.0603 23.7858 21.2278 23.8031C21.3011 23.7685 21.5105 23.7555 21.8561 23.7641C22.2121 23.7641 22.432 23.7598 22.5157 23.7512C22.6414 24.3312 22.678 24.7813 22.6257 25.1016C22.5838 25.4219 22.5576 26.1101 22.5472 27.1662C22.5472 28.2137 22.5576 28.8932 22.5786 29.2048C22.5995 29.5078 22.61 29.7329 22.61 29.8801C22.589 30.0359 22.5733 30.46 22.5629 31.1526C22.5524 31.8365 22.5419 32.4381 22.5315 32.9575C22.521 33.4769 22.5367 33.8145 22.5786 33.9703C22.5786 34.0742 22.5681 34.1954 22.5472 34.3339C22.5367 34.4724 22.5419 34.6152 22.5629 34.7624C22.5943 34.9096 22.5943 35.0394 22.5629 35.1519C22.4896 35.2299 22.3639 35.2601 22.1859 35.2428C22.0079 35.2255 21.7514 35.1996 21.4163 35.1649C21.0812 35.1303 20.6571 35.1606 20.1441 35.2558C20.0917 35.2645 20.0289 35.2558 19.9556 35.2299C19.8718 35.2125 19.7462 35.2039 19.5786 35.2039C19.4111 35.2125 19.3064 35.2169 19.2645 35.2169C19.2121 35.2255 19.0655 35.2385 18.8247 35.2558C18.7619 35.2558 18.7409 35.1952 18.7619 35.074C18.7828 34.9615 18.788 34.836 18.7776 34.6975C18.7776 34.533 18.7828 34.3209 18.7933 34.0612C18.8142 33.8015 18.8247 33.5375 18.8247 33.2691C18.8247 33.0094 18.8247 32.8536 18.8247 32.8017C18.7514 32.5939 18.7357 32.3818 18.7776 32.1654C18.8195 31.9403 18.8404 31.8191 18.8404 31.8018C18.7043 31.369 18.7514 31.1136 18.9818 31.0357Z" fill="#161A1D"/>
<path d="M24.9555 26.3351C24.9241 26.3524 24.9032 26.3697 24.8927 26.387C24.8927 26.4043 24.788 26.413 24.5786 26.413C24.3796 26.4043 24.2802 26.387 24.2802 26.361C24.0917 26.4303 23.9346 26.4216 23.809 26.3351C23.6833 26.2398 23.6467 26.1316 23.699 26.0104C23.7514 25.8892 23.7566 25.7161 23.7147 25.491C23.6833 25.266 23.7095 25.1188 23.7933 25.0496C23.7933 24.9457 23.7723 24.7725 23.7304 24.5302C23.699 24.2878 23.6938 24.1103 23.7147 23.9978C23.7461 23.8852 23.7566 23.7597 23.7461 23.6212C23.7357 23.4827 23.7514 23.3788 23.7933 23.3096L23.7304 23.2966C23.7828 23.2966 23.8456 23.2879 23.9189 23.2706C24.055 23.236 24.1545 23.2317 24.2173 23.2576C24.2906 23.2836 24.4843 23.2879 24.7985 23.2706C25.1126 23.2446 25.2959 23.2576 25.3482 23.3096C25.5053 23.2749 25.7252 23.2706 26.0079 23.2966C26.3011 23.3139 26.5262 23.2923 26.6833 23.2317C26.8403 23.2663 26.9189 23.3529 26.9189 23.4914C26.9189 23.6212 26.9189 23.7121 26.9189 23.764C26.9189 23.816 26.9032 23.8982 26.8718 24.0108C26.8508 24.1233 26.8246 24.2661 26.7932 24.4393C26.7618 24.6037 26.7827 24.8331 26.856 25.1275C26.9189 25.2746 26.9346 25.6079 26.9032 26.1273C26.8718 26.638 26.8613 26.9324 26.8718 27.0103C26.8927 27.0882 26.8927 27.2527 26.8718 27.5037C26.8613 27.7548 26.856 27.8889 26.856 27.9062C26.8456 28.0274 26.5943 28.0491 26.1021 27.9712C25.9346 27.9452 25.8089 27.9409 25.7252 27.9582C25.5053 27.8803 25.3063 27.8933 25.1283 27.9971C24.9608 28.101 24.8927 28.2482 24.9241 28.4386C25.1754 29.9795 25.2173 31.1568 25.0498 31.9705C25.0079 32.1263 24.9922 32.3081 25.0027 32.5159C25.0131 32.8102 25.0027 33.0223 24.9713 33.1522C24.9503 33.2907 24.9503 33.4422 24.9713 33.6066C24.9922 33.7711 24.9922 33.8923 24.9713 33.9702C24.9503 34.0568 24.9765 34.126 25.0498 34.178C25.1231 34.2299 25.2487 34.2342 25.4267 34.191C25.6048 34.1563 25.7461 34.1477 25.8508 34.165C26.1231 34.2083 26.343 34.1347 26.5105 33.9442C26.5314 33.9183 26.6885 33.7798 26.9817 33.5287C27.2854 33.2863 27.4634 33.1435 27.5157 33.1002C27.5262 32.8319 27.5262 31.8926 27.5157 30.2825C27.5157 28.6637 27.521 27.6942 27.5314 27.3739C27.5419 27.0536 27.5367 26.7376 27.5157 26.426C27.4948 26.1057 27.4895 25.9152 27.5 25.8546C27.5838 25.1534 27.5733 24.3051 27.4686 23.3096C27.5419 23.2663 27.6204 23.249 27.7042 23.2576C27.788 23.2663 27.9032 23.2836 28.0497 23.3096C28.2068 23.3269 28.322 23.3269 28.3953 23.3096C28.5524 23.2663 28.6414 23.2749 28.6623 23.3355C28.6937 23.3875 28.7094 23.4264 28.7094 23.4524C28.7094 23.4784 28.7094 23.513 28.7094 23.5563C28.7094 23.5996 28.7094 23.6645 28.7094 23.7511C28.7094 23.8376 28.7251 24.054 28.7565 24.4003C28.7984 25.0842 28.8089 25.5733 28.788 25.8676C28.7147 26.664 28.6832 27.2657 28.6937 27.6725C28.7042 28.0794 28.7042 28.3824 28.6937 28.5815C28.5995 30.0617 28.5995 31.1222 28.6937 31.7628C28.8194 32.741 28.8613 33.8533 28.8194 35.0999C28.7775 35.2038 28.6937 35.2557 28.5681 35.2557C28.4529 35.2557 28.3325 35.2384 28.2068 35.2038C28.0916 35.1778 27.9817 35.1995 27.877 35.2687C27.8456 35.1821 27.7513 35.1692 27.5943 35.2298L27.5157 35.2427C27.5367 35.2341 27.5367 35.1821 27.5157 35.0869C27.4948 34.983 27.4948 34.8445 27.5157 34.6714C27.5471 34.4983 27.5524 34.3684 27.5314 34.2819C27.3534 34.3251 27.0655 34.5112 26.6676 34.8402C26.5838 35.0047 26.4424 35.1172 26.2435 35.1778C26.0445 35.2384 25.8875 35.2471 25.7723 35.2038C25.6571 35.1605 25.5262 35.1432 25.3796 35.1518C25.2226 35.1605 25.055 35.1778 24.877 35.2038C24.7095 35.2384 24.61 35.2557 24.5786 35.2557L24.1074 35.2817C23.9189 35.2817 23.7985 35.2471 23.7461 35.1778C23.7147 35.1259 23.7043 35.0609 23.7147 34.983C23.6519 34.8705 23.6467 34.6671 23.699 34.3727C23.7514 34.0784 23.7566 33.8707 23.7147 33.7495C23.6728 33.6369 23.6676 33.4465 23.699 33.1781C23.7409 32.9184 23.7409 32.7366 23.699 32.6328C23.6676 32.5202 23.6676 32.3384 23.699 32.0874C23.8351 30.9101 23.8456 29.8497 23.7304 28.9061C23.7095 28.7156 23.7095 28.5252 23.7304 28.3347C23.7514 28.1356 23.7514 27.9798 23.7304 27.8673C23.7723 27.8413 23.7828 27.7201 23.7618 27.5037C23.7409 27.2786 23.7304 27.1574 23.7304 27.1401C23.7409 27.0103 23.7985 26.9324 23.9032 26.9064C24.0707 26.8718 24.2121 26.8848 24.3273 26.9454C24.4843 26.9021 24.6571 26.8804 24.8456 26.8804L25.411 26.9194C25.5158 26.9194 25.5838 26.8934 25.6152 26.8415C25.6571 26.7809 25.6676 26.716 25.6466 26.6467C25.5733 26.4216 25.5576 26.2398 25.5995 26.1013C25.6519 25.9628 25.6414 25.6425 25.5681 25.1404C25.5576 25.0712 25.5733 24.95 25.6152 24.7769C25.6571 24.5951 25.6623 24.4609 25.6309 24.3743C25.5995 24.2791 25.4896 24.2402 25.3011 24.2575C24.9451 24.2921 24.8613 24.5518 25.0498 25.0366C24.9765 25.1491 24.9555 25.3309 24.987 25.5819C25.0184 25.833 25.0184 25.9975 24.987 26.0754C24.966 26.1533 24.9608 26.2095 24.9713 26.2442C24.9922 26.2788 24.987 26.3091 24.9555 26.3351ZM23.7304 23.2966L23.6676 23.2836C23.6885 23.2923 23.7095 23.2966 23.7304 23.2966Z" fill="#161A1D"/>
<path d="M25.0594 21.4009C24.9965 21.4356 24.9704 21.4788 24.9808 21.5308C24.8761 21.8078 24.8866 22.0415 25.0122 22.232C25.096 22.1973 25.1955 22.193 25.3107 22.219C25.4258 22.245 25.4939 22.2623 25.5149 22.2709C25.5881 22.193 25.6196 22.0978 25.6091 21.9853C25.5881 21.8641 25.5829 21.7688 25.5934 21.6996C25.6457 21.6477 25.6562 21.5871 25.6248 21.5178C25.5829 21.4399 25.5358 21.4053 25.4834 21.4139C25.4206 21.4139 25.3735 21.4182 25.3421 21.4269C25.3107 21.4269 25.2793 21.4312 25.2478 21.4399C25.206 21.4485 25.1693 21.4529 25.1379 21.4529C25.0751 21.4702 25.0489 21.4529 25.0594 21.4009ZM23.74 20.7127C23.8342 20.7041 24.0384 20.6868 24.3526 20.6608C24.6667 20.6262 25.0175 20.6305 25.4049 20.6738C25.7819 20.7084 26.1169 20.7084 26.4101 20.6738C26.7033 20.6392 26.8551 20.6435 26.8656 20.6868C26.8761 20.7214 26.8709 20.782 26.8499 20.8686C26.829 20.9551 26.829 21.0806 26.8499 21.2451C26.8709 21.4096 26.8656 21.6953 26.8342 22.1021C26.7818 22.206 26.808 22.2709 26.9127 22.2969C27.0174 22.3142 27.1065 22.3056 27.1797 22.2709C27.2426 22.2276 27.3159 22.2103 27.3996 22.219C27.4729 22.219 27.5148 22.1887 27.5253 22.1281C27.5672 21.9117 27.5515 21.7429 27.4782 21.6217C27.3944 21.4918 27.4101 21.4182 27.5253 21.4009C27.63 21.3836 27.7871 21.4009 27.9965 21.4529C28.2059 21.5048 28.3892 21.5135 28.5462 21.4788C28.6928 21.4356 28.7661 21.4226 28.7661 21.4399C28.7661 21.4572 28.7609 21.4962 28.7504 21.5568C28.7295 21.6174 28.7295 21.665 28.7504 21.6996C28.7713 21.7342 28.7871 21.7775 28.7975 21.8294C28.7975 21.8814 28.7923 21.929 28.7818 21.9723C28.7714 22.0069 28.7556 22.0588 28.7347 22.1281C28.7138 22.1887 28.7033 22.2363 28.7033 22.2709C28.7033 22.3056 28.7138 22.3705 28.7347 22.4657C28.7661 22.6042 28.7661 22.7427 28.7347 22.8812C28.6719 22.9505 28.5515 22.9851 28.3735 22.9851C28.1954 22.9851 27.9755 22.9981 27.7138 23.0241C27.452 23.05 27.1065 23.0587 26.6771 23.05C26.2374 23.0414 25.8552 23.0284 25.5306 23.0111C24.9756 22.9764 24.3683 22.9938 23.7086 23.063C23.6562 23.0457 23.651 22.9808 23.6929 22.8682C23.7243 22.747 23.7295 22.6561 23.7086 22.5956C23.6876 22.5263 23.6772 22.4787 23.6772 22.4527C23.6772 22.4267 23.6876 22.3662 23.7086 22.2709C23.7714 22.0112 23.7557 21.7299 23.6615 21.4269C23.651 21.0806 23.6772 20.8426 23.74 20.7127Z" fill="#161A1D"/>
<path d="M31.8446 23.5305L31.9388 22.4787C31.9388 22.3748 31.9336 22.1454 31.9231 21.7905C31.9127 21.4269 31.9074 21.1759 31.9074 21.0374C31.8446 20.9075 31.8551 20.808 31.9388 20.7387C32.0226 20.6608 32.1483 20.6218 32.3158 20.6218L33.8079 20.6478C33.9755 20.6218 34.2006 20.6262 34.4833 20.6608C34.7765 20.6954 34.9755 20.7127 35.0802 20.7127L35.0173 21.7775C35.0173 21.8727 35.0226 22.1021 35.033 22.4657C35.054 22.8206 35.054 23.2188 35.033 23.6603C35.0121 24.0931 35.0121 24.4134 35.033 24.6212C35.0749 25.0281 35.0906 25.331 35.0802 25.5301C35.0488 26.1881 35.0278 27.071 35.0173 28.1791C35.0173 29.2871 35.0121 30.0662 35.0016 30.5164C35.054 32.7238 35.0645 33.966 35.033 34.243C35.0016 34.5201 34.9912 34.6975 35.0016 34.7754C35.0645 35.0438 34.9964 35.1953 34.7974 35.2299C34.6613 35.2126 34.5095 35.2126 34.342 35.2299C33.9231 35.2732 33.7399 35.1606 33.7922 34.8923C33.7189 34.5027 33.6928 33.5981 33.7137 32.1784C33.7451 30.7588 33.766 29.3218 33.7765 27.8674C33.7975 26.4045 33.8132 25.647 33.8236 25.5951C33.7818 23.9157 33.7503 22.9851 33.7294 22.8033C33.7085 22.6215 33.7085 22.4787 33.7294 22.3748C33.7503 22.2623 33.7608 22.1367 33.7608 21.9982C33.7608 21.8597 33.7294 21.7645 33.6666 21.7126C33.5828 21.7732 33.4676 21.7818 33.321 21.7385C33.1849 21.6866 33.1168 21.6779 33.1168 21.7126C33.1692 22.3532 33.1901 23.0284 33.1797 23.7382C33.1168 27.2874 33.1168 29.5814 33.1797 30.6202C33.2425 31.6504 33.2425 32.4987 33.1797 33.1653C33.1168 33.8405 33.0854 34.1824 33.0854 34.1911C33.1797 34.3123 33.2058 34.4941 33.164 34.7365C33.1221 34.9789 33.1064 35.139 33.1168 35.2169C32.9598 35.1823 32.8132 35.1693 32.6771 35.178C32.3629 35.1953 32.1587 35.2039 32.0645 35.2039C31.9179 35.2818 31.7294 35.2905 31.4991 35.2299C31.2687 35.178 31.1012 35.1693 30.9964 35.2039C30.8813 35.1606 30.7137 35.1477 30.4938 35.165C30.2844 35.1909 30.1326 35.1866 30.0383 35.152C29.9755 34.5807 29.9546 34.1695 29.9755 33.9184C30.1116 31.8841 30.1221 30.0316 30.0069 28.3609C29.8918 26.6901 29.8813 25.1882 29.9755 23.8551C30.0698 22.5133 30.0855 21.4615 30.0226 20.6997C30.075 20.7084 30.1221 20.7041 30.164 20.6868C30.2164 20.6608 30.253 20.6478 30.2739 20.6478C30.2949 20.6392 30.3368 20.6565 30.3996 20.6997C30.4624 20.743 30.5776 20.7474 30.7451 20.7127C30.9232 20.6695 31.054 20.6565 31.1378 20.6738C31.2216 20.6997 31.253 20.7863 31.2321 20.9335C31.3577 21.8511 31.3525 22.7644 31.2163 23.6733C31.1954 23.8291 31.232 24.4611 31.3263 25.5691C31.4205 26.6685 31.431 27.5904 31.3577 28.3349C31.2949 29.0794 31.2635 29.6334 31.2635 29.997C31.2739 30.3605 31.253 30.9752 31.2006 31.8408C31.1483 32.7065 31.1535 33.3687 31.2163 33.8275C31.1849 34.0526 31.1954 34.1868 31.2478 34.2301L31.9546 34.1262C31.9336 33.0095 31.9179 31.8928 31.9074 30.7761C31.8655 30.3173 31.8446 30.0705 31.8446 30.0359C31.8551 29.9926 31.8603 29.7373 31.8603 29.2698C31.9231 27.5731 31.9179 25.66 31.8446 23.5305Z" fill="#161A1D"/>
</svg>
